<svg xmlns="http://www.w3.org/2000/svg" width="24" height="24" viewBox="0 0 24 24" fill="none">
  <path d="M8 24H16L16.1166 23.9933C16.614 23.9355 17 23.5128 17 23C17 22.4477 16.5523 22 16 22H13L13.0007 19.945C17.5003 19.4472 21 15.6323 21 11C21 10.4477 20.5523 10 20 10C19.4477 10 19 10.4477 19 11C19 14.866 15.866 18 12 18C8.13401 18 5 14.866 5 11C5 10.4477 4.55228 10 4 10C3.44772 10 3 10.4477 3 11C3 15.6327 6.50021 19.4478 11.0003 19.9451L11 22H8L7.88338 22.0067C7.38604 22.0645 7 22.4872 7 23C7 23.5523 7.44772 24 8 24ZM12 1C13.6569 1 15 2.34315 15 4V12C15 13.6569 13.6569 15 12 15C10.3431 15 9 13.6569 9 12V4C9 2.34315 10.3431 1 12 1Z" fill="currentColor"></path>
</svg>
